<mxfile host="app.diagrams.net" agent="Mozilla/5.0 (Windows NT 10.0; Win64; x64) AppleWebKit/537.36 (KHTML, like Gecko) Chrome/129.0.0.0 Safari/537.36" version="24.7.17">
  <diagram name="Page-1" id="13e1069c-82ec-6db2-03f1-153e76fe0fe0">
    <mxGraphModel dx="1257" dy="726" grid="1" gridSize="10" guides="1" tooltips="1" connect="1" arrows="1" fold="1" page="1" pageScale="1" pageWidth="1100" pageHeight="850" background="none" math="0" shadow="0">
      <root>
        <mxCell id="0" />
        <mxCell id="1" parent="0" />
        <mxCell id="PfA9UrWwTEVDZZUZMj6F-246" value="API" style="shape=umlLifeline;perimeter=lifelinePerimeter;whiteSpace=wrap;html=1;container=1;collapsible=0;recursiveResize=0;outlineConnect=0;rounded=0;shadow=0;comic=0;labelBackgroundColor=none;strokeWidth=1;fontFamily=Verdana;fontSize=12;align=center;" parent="1" vertex="1">
          <mxGeometry x="1224.06" y="85" width="100" height="942" as="geometry" />
        </mxCell>
        <mxCell id="PfA9UrWwTEVDZZUZMj6F-247" value="" style="html=1;points=[[0,0,0,0,5],[0,1,0,0,-5],[1,0,0,0,5],[1,1,0,0,-5]];perimeter=orthogonalPerimeter;outlineConnect=0;targetShapes=umlLifeline;portConstraint=eastwest;newEdgeStyle={&quot;curved&quot;:0,&quot;rounded&quot;:0};" parent="PfA9UrWwTEVDZZUZMj6F-246" vertex="1">
          <mxGeometry x="48" y="491" width="10" height="259" as="geometry" />
        </mxCell>
        <mxCell id="PfA9UrWwTEVDZZUZMj6F-248" value="App" style="shape=umlLifeline;perimeter=lifelinePerimeter;whiteSpace=wrap;html=1;container=1;collapsible=0;recursiveResize=0;outlineConnect=0;rounded=0;shadow=0;comic=0;labelBackgroundColor=none;strokeWidth=1;fontFamily=Verdana;fontSize=12;align=center;" parent="1" vertex="1">
          <mxGeometry x="290.5" y="85" width="100" height="942" as="geometry" />
        </mxCell>
        <mxCell id="PfA9UrWwTEVDZZUZMj6F-249" value="" style="html=1;points=[[0,0,0,0,5],[0,1,0,0,-5],[1,0,0,0,5],[1,1,0,0,-5]];perimeter=orthogonalPerimeter;outlineConnect=0;targetShapes=umlLifeline;portConstraint=eastwest;newEdgeStyle={&quot;curved&quot;:0,&quot;rounded&quot;:0};" parent="PfA9UrWwTEVDZZUZMj6F-248" vertex="1">
          <mxGeometry x="47" y="606" width="10" height="75" as="geometry" />
        </mxCell>
        <mxCell id="PfA9UrWwTEVDZZUZMj6F-250" value="" style="html=1;points=[[0,0,0,0,5],[0,1,0,0,-5],[1,0,0,0,5],[1,1,0,0,-5]];perimeter=orthogonalPerimeter;outlineConnect=0;targetShapes=umlLifeline;portConstraint=eastwest;newEdgeStyle={&quot;curved&quot;:0,&quot;rounded&quot;:0};" parent="PfA9UrWwTEVDZZUZMj6F-248" vertex="1">
          <mxGeometry x="47" y="883" width="10" height="45" as="geometry" />
        </mxCell>
        <mxCell id="PfA9UrWwTEVDZZUZMj6F-251" value="sd Administracion de dispositivos" style="shape=umlFrame;whiteSpace=wrap;html=1;pointerEvents=0;width=190;height=28;" parent="1" vertex="1">
          <mxGeometry x="10" y="10" width="1670" height="1067" as="geometry" />
        </mxCell>
        <mxCell id="PfA9UrWwTEVDZZUZMj6F-252" value="" style="shape=umlLifeline;perimeter=lifelinePerimeter;whiteSpace=wrap;html=1;container=1;dropTarget=0;collapsible=0;recursiveResize=0;outlineConnect=0;portConstraint=eastwest;newEdgeStyle={&quot;curved&quot;:0,&quot;rounded&quot;:0};participant=umlActor;size=60;" parent="1" vertex="1">
          <mxGeometry x="71.5" y="90" width="30" height="947" as="geometry" />
        </mxCell>
        <mxCell id="PfA9UrWwTEVDZZUZMj6F-253" value="" style="html=1;points=[[0,0,0,0,5],[0,1,0,0,-5],[1,0,0,0,5],[1,1,0,0,-5]];perimeter=orthogonalPerimeter;outlineConnect=0;targetShapes=umlLifeline;portConstraint=eastwest;newEdgeStyle={&quot;curved&quot;:0,&quot;rounded&quot;:0};" parent="PfA9UrWwTEVDZZUZMj6F-252" vertex="1">
          <mxGeometry x="12" y="626" width="10" height="50" as="geometry" />
        </mxCell>
        <mxCell id="PfA9UrWwTEVDZZUZMj6F-254" value="" style="html=1;points=[[0,0,0,0,5],[0,1,0,0,-5],[1,0,0,0,5],[1,1,0,0,-5]];perimeter=orthogonalPerimeter;outlineConnect=0;targetShapes=umlLifeline;portConstraint=eastwest;newEdgeStyle={&quot;curved&quot;:0,&quot;rounded&quot;:0};" parent="PfA9UrWwTEVDZZUZMj6F-252" vertex="1">
          <mxGeometry x="12" y="886" width="10" height="34" as="geometry" />
        </mxCell>
        <mxCell id="PfA9UrWwTEVDZZUZMj6F-255" value="Cliente" style="text;html=1;align=center;verticalAlign=middle;resizable=0;points=[];autosize=1;strokeColor=none;fillColor=none;" parent="1" vertex="1">
          <mxGeometry x="56.5" y="60" width="60" height="30" as="geometry" />
        </mxCell>
        <mxCell id="PfA9UrWwTEVDZZUZMj6F-256" value="Usuario ya inicio sesion" style="shape=note;whiteSpace=wrap;html=1;backgroundOutline=1;darkOpacity=0.05;size=20;" parent="1" vertex="1">
          <mxGeometry x="132" y="83" width="80" height="92" as="geometry" />
        </mxCell>
        <mxCell id="PfA9UrWwTEVDZZUZMj6F-257" value="Dispositivos" style="shape=umlLifeline;perimeter=lifelinePerimeter;whiteSpace=wrap;html=1;container=1;collapsible=0;recursiveResize=0;outlineConnect=0;rounded=0;shadow=0;comic=0;labelBackgroundColor=none;strokeWidth=1;fontFamily=Verdana;fontSize=12;align=center;" parent="1" vertex="1">
          <mxGeometry x="726.56" y="85" width="100" height="942" as="geometry" />
        </mxCell>
        <mxCell id="PfA9UrWwTEVDZZUZMj6F-258" value="" style="html=1;points=[[0,0,0,0,5],[0,1,0,0,-5],[1,0,0,0,5],[1,1,0,0,-5]];perimeter=orthogonalPerimeter;outlineConnect=0;targetShapes=umlLifeline;portConstraint=eastwest;newEdgeStyle={&quot;curved&quot;:0,&quot;rounded&quot;:0};" parent="PfA9UrWwTEVDZZUZMj6F-257" vertex="1">
          <mxGeometry x="47" y="501" width="10" height="75" as="geometry" />
        </mxCell>
        <mxCell id="PfA9UrWwTEVDZZUZMj6F-259" style="edgeStyle=orthogonalEdgeStyle;rounded=0;orthogonalLoop=1;jettySize=auto;html=1;curved=0;exitX=1;exitY=0;exitDx=0;exitDy=5;exitPerimeter=0;" parent="1" source="PfA9UrWwTEVDZZUZMj6F-258" target="PfA9UrWwTEVDZZUZMj6F-247" edge="1">
          <mxGeometry relative="1" as="geometry">
            <Array as="points">
              <mxPoint x="771" y="586" />
            </Array>
          </mxGeometry>
        </mxCell>
        <mxCell id="PfA9UrWwTEVDZZUZMj6F-260" value="Pedir datos que mostrar de todos los dispositivos" style="edgeLabel;html=1;align=center;verticalAlign=middle;resizable=0;points=[];" parent="PfA9UrWwTEVDZZUZMj6F-259" vertex="1" connectable="0">
          <mxGeometry x="-0.006" y="2" relative="1" as="geometry">
            <mxPoint x="-4" y="-8" as="offset" />
          </mxGeometry>
        </mxCell>
        <mxCell id="PfA9UrWwTEVDZZUZMj6F-261" value="" style="group;rotation=90;" parent="1" vertex="1" connectable="0">
          <mxGeometry x="1326" y="586" width="75" as="geometry" />
        </mxCell>
        <mxCell id="PfA9UrWwTEVDZZUZMj6F-262" value="Buscar datos de dispositivos en la base de datos" style="html=1;verticalAlign=bottom;startArrow=none;startFill=0;endArrow=oval;curved=0;rounded=0;endFill=1;targetPerimeterSpacing=2;endSize=14;" parent="PfA9UrWwTEVDZZUZMj6F-261" edge="1">
          <mxGeometry x="0.9467" y="16" width="80" relative="1" as="geometry">
            <mxPoint as="sourcePoint" />
            <mxPoint x="75" as="targetPoint" />
            <mxPoint as="offset" />
            <Array as="points">
              <mxPoint x="35" />
            </Array>
          </mxGeometry>
        </mxCell>
        <mxCell id="PfA9UrWwTEVDZZUZMj6F-263" value="" style="endArrow=open;endFill=1;endSize=12;html=1;rounded=0;" parent="PfA9UrWwTEVDZZUZMj6F-261" source="PfA9UrWwTEVDZZUZMj6F-247" edge="1">
          <mxGeometry width="160" relative="1" as="geometry">
            <mxPoint as="sourcePoint" />
            <mxPoint x="70" as="targetPoint" />
          </mxGeometry>
        </mxCell>
        <mxCell id="PfA9UrWwTEVDZZUZMj6F-264" style="edgeStyle=orthogonalEdgeStyle;rounded=0;orthogonalLoop=1;jettySize=auto;html=1;curved=0;dashed=1;dashPattern=12 12;" parent="1" source="PfA9UrWwTEVDZZUZMj6F-247" target="PfA9UrWwTEVDZZUZMj6F-258" edge="1">
          <mxGeometry relative="1" as="geometry">
            <Array as="points">
              <mxPoint x="972" y="656" />
              <mxPoint x="972" y="656" />
            </Array>
          </mxGeometry>
        </mxCell>
        <mxCell id="PfA9UrWwTEVDZZUZMj6F-265" value="Envio de datos" style="edgeLabel;html=1;align=center;verticalAlign=middle;resizable=0;points=[];" parent="PfA9UrWwTEVDZZUZMj6F-264" vertex="1" connectable="0">
          <mxGeometry x="0.1905" y="1" relative="1" as="geometry">
            <mxPoint x="39" y="-16" as="offset" />
          </mxGeometry>
        </mxCell>
        <mxCell id="PfA9UrWwTEVDZZUZMj6F-266" style="edgeStyle=orthogonalEdgeStyle;rounded=0;orthogonalLoop=1;jettySize=auto;html=1;curved=0;" parent="1" source="PfA9UrWwTEVDZZUZMj6F-253" target="PfA9UrWwTEVDZZUZMj6F-249" edge="1">
          <mxGeometry relative="1" as="geometry">
            <Array as="points">
              <mxPoint x="185" y="716" />
              <mxPoint x="185" y="716" />
            </Array>
          </mxGeometry>
        </mxCell>
        <mxCell id="PfA9UrWwTEVDZZUZMj6F-267" value="Observar datos de dispositivos" style="edgeLabel;html=1;align=center;verticalAlign=middle;resizable=0;points=[];" parent="PfA9UrWwTEVDZZUZMj6F-266" vertex="1" connectable="0">
          <mxGeometry x="-0.4423" y="3" relative="1" as="geometry">
            <mxPoint x="34" y="-12" as="offset" />
          </mxGeometry>
        </mxCell>
        <mxCell id="PfA9UrWwTEVDZZUZMj6F-268" style="edgeStyle=orthogonalEdgeStyle;rounded=0;orthogonalLoop=1;jettySize=auto;html=1;curved=0;endArrow=open;endFill=0;" parent="1" source="PfA9UrWwTEVDZZUZMj6F-258" target="PfA9UrWwTEVDZZUZMj6F-249" edge="1">
          <mxGeometry relative="1" as="geometry">
            <Array as="points">
              <mxPoint x="384" y="656" />
              <mxPoint x="384" y="700" />
            </Array>
          </mxGeometry>
        </mxCell>
        <mxCell id="PfA9UrWwTEVDZZUZMj6F-269" value="Actualizar pagina con datos nuevos" style="edgeLabel;html=1;align=center;verticalAlign=middle;resizable=0;points=[];" parent="PfA9UrWwTEVDZZUZMj6F-268" vertex="1" connectable="0">
          <mxGeometry x="0.1006" y="2" relative="1" as="geometry">
            <mxPoint x="38" y="-23" as="offset" />
          </mxGeometry>
        </mxCell>
        <mxCell id="PfA9UrWwTEVDZZUZMj6F-270" style="edgeStyle=orthogonalEdgeStyle;rounded=0;orthogonalLoop=1;jettySize=auto;html=1;curved=0;dashed=1;dashPattern=12 12;" parent="1" source="PfA9UrWwTEVDZZUZMj6F-249" target="PfA9UrWwTEVDZZUZMj6F-253" edge="1">
          <mxGeometry relative="1" as="geometry">
            <Array as="points">
              <mxPoint x="260" y="756" />
              <mxPoint x="260" y="756" />
            </Array>
          </mxGeometry>
        </mxCell>
        <mxCell id="PfA9UrWwTEVDZZUZMj6F-271" value="Mostrar datos de todos los dispositivos" style="edgeLabel;html=1;align=center;verticalAlign=middle;resizable=0;points=[];" parent="PfA9UrWwTEVDZZUZMj6F-270" vertex="1" connectable="0">
          <mxGeometry x="-0.2295" y="-2" relative="1" as="geometry">
            <mxPoint x="-21" y="-8" as="offset" />
          </mxGeometry>
        </mxCell>
        <mxCell id="PfA9UrWwTEVDZZUZMj6F-272" value="Loop" style="shape=umlFrame;whiteSpace=wrap;html=1;pointerEvents=0;" parent="1" vertex="1">
          <mxGeometry x="320" y="504" width="1320" height="383" as="geometry" />
        </mxCell>
        <mxCell id="PfA9UrWwTEVDZZUZMj6F-273" value="[Hasta cerrar sesion]" style="text;align=center;fontStyle=1;verticalAlign=middle;spacingLeft=3;spacingRight=3;strokeColor=none;rotatable=0;points=[[0,0.5],[1,0.5]];portConstraint=eastwest;html=1;" parent="1" vertex="1">
          <mxGeometry x="1265.06" y="504" width="80" height="26" as="geometry" />
        </mxCell>
        <mxCell id="PfA9UrWwTEVDZZUZMj6F-274" style="edgeStyle=orthogonalEdgeStyle;rounded=0;orthogonalLoop=1;jettySize=auto;html=1;curved=0;endArrow=open;endFill=0;" parent="1" source="PfA9UrWwTEVDZZUZMj6F-254" target="PfA9UrWwTEVDZZUZMj6F-250" edge="1">
          <mxGeometry relative="1" as="geometry">
            <Array as="points">
              <mxPoint x="225" y="993" />
              <mxPoint x="225" y="993" />
            </Array>
          </mxGeometry>
        </mxCell>
        <mxCell id="PfA9UrWwTEVDZZUZMj6F-275" value="Cerrar sesion" style="edgeLabel;html=1;align=center;verticalAlign=middle;resizable=0;points=[];" parent="PfA9UrWwTEVDZZUZMj6F-274" vertex="1" connectable="0">
          <mxGeometry x="-0.0481" y="2" relative="1" as="geometry">
            <mxPoint x="-11" y="-13" as="offset" />
          </mxGeometry>
        </mxCell>
        <mxCell id="PfA9UrWwTEVDZZUZMj6F-276" style="edgeStyle=orthogonalEdgeStyle;rounded=0;orthogonalLoop=1;jettySize=auto;html=1;curved=0;endArrow=open;endFill=0;" parent="1" source="PfA9UrWwTEVDZZUZMj6F-250" target="PfA9UrWwTEVDZZUZMj6F-279" edge="1">
          <mxGeometry relative="1" as="geometry">
            <Array as="points">
              <mxPoint x="397" y="990" />
              <mxPoint x="397" y="990" />
            </Array>
          </mxGeometry>
        </mxCell>
        <mxCell id="PfA9UrWwTEVDZZUZMj6F-277" value="&lt;font style=&quot;font-size: 10px;&quot;&gt;Peticion de volver al login&lt;/font&gt;" style="edgeLabel;html=1;align=center;verticalAlign=middle;resizable=0;points=[];" parent="PfA9UrWwTEVDZZUZMj6F-276" vertex="1" connectable="0">
          <mxGeometry x="-0.3534" y="-1" relative="1" as="geometry">
            <mxPoint x="43" y="-16" as="offset" />
          </mxGeometry>
        </mxCell>
        <mxCell id="PfA9UrWwTEVDZZUZMj6F-278" value="BaseRouter" style="shape=umlLifeline;perimeter=lifelinePerimeter;whiteSpace=wrap;html=1;container=1;collapsible=0;recursiveResize=0;outlineConnect=0;rounded=0;shadow=0;comic=0;labelBackgroundColor=none;strokeWidth=1;fontFamily=Verdana;fontSize=12;align=center;" parent="1" vertex="1">
          <mxGeometry x="516" y="85" width="100" height="942" as="geometry" />
        </mxCell>
        <mxCell id="PfA9UrWwTEVDZZUZMj6F-279" value="" style="html=1;points=[[0,0,0,0,5],[0,1,0,0,-5],[1,0,0,0,5],[1,1,0,0,-5]];perimeter=orthogonalPerimeter;outlineConnect=0;targetShapes=umlLifeline;portConstraint=eastwest;newEdgeStyle={&quot;curved&quot;:0,&quot;rounded&quot;:0};" parent="PfA9UrWwTEVDZZUZMj6F-278" vertex="1">
          <mxGeometry x="47.99999999999994" y="893" width="10" height="35" as="geometry" />
        </mxCell>
        <mxCell id="PfA9UrWwTEVDZZUZMj6F-280" value="Los datos constantemente se actualizan" style="shape=note;whiteSpace=wrap;html=1;backgroundOutline=1;darkOpacity=0.05;size=20;" parent="1" vertex="1">
          <mxGeometry x="147" y="524" width="95" height="92" as="geometry" />
        </mxCell>
        <mxCell id="PfA9UrWwTEVDZZUZMj6F-281" value="¿Existen dispositivos registrados?" style="shape=umlFrame;whiteSpace=wrap;html=1;pointerEvents=0;recursiveResize=0;container=1;collapsible=0;width=230;height=28;" parent="1" vertex="1">
          <mxGeometry x="22" y="325" width="1628" height="712" as="geometry" />
        </mxCell>
        <mxCell id="PfA9UrWwTEVDZZUZMj6F-282" value="No" style="text;html=1;" parent="PfA9UrWwTEVDZZUZMj6F-281" vertex="1">
          <mxGeometry width="100" height="20" relative="1" as="geometry">
            <mxPoint x="23" y="28" as="offset" />
          </mxGeometry>
        </mxCell>
        <mxCell id="PfA9UrWwTEVDZZUZMj6F-283" value="Si" style="line;strokeWidth=1;dashed=1;labelPosition=center;verticalLabelPosition=bottom;align=left;verticalAlign=top;spacingLeft=20;spacingTop=15;html=1;whiteSpace=wrap;" parent="PfA9UrWwTEVDZZUZMj6F-281" vertex="1">
          <mxGeometry y="120" width="1250" height="10" as="geometry" />
        </mxCell>
        <mxCell id="PfA9UrWwTEVDZZUZMj6F-284" value="" style="html=1;verticalAlign=bottom;startArrow=circle;startFill=1;endArrow=open;startSize=6;endSize=8;curved=0;rounded=0;dashed=1;dashPattern=12 12;" parent="PfA9UrWwTEVDZZUZMj6F-281" target="PfA9UrWwTEVDZZUZMj6F-247" edge="1">
          <mxGeometry x="-1" y="-10" width="80" relative="1" as="geometry">
            <mxPoint x="1383.94" y="301" as="sourcePoint" />
            <mxPoint x="1297" y="301" as="targetPoint" />
            <mxPoint as="offset" />
          </mxGeometry>
        </mxCell>
        <mxCell id="PfA9UrWwTEVDZZUZMj6F-285" value="Enviar datos de dispositivos de la base de datos" style="edgeLabel;html=1;align=center;verticalAlign=middle;resizable=0;points=[];" parent="PfA9UrWwTEVDZZUZMj6F-284" vertex="1" connectable="0">
          <mxGeometry x="-0.5176" y="-1" relative="1" as="geometry">
            <mxPoint x="21" y="-16" as="offset" />
          </mxGeometry>
        </mxCell>
        <mxCell id="PfA9UrWwTEVDZZUZMj6F-286" value="" style="html=1;points=[[0,0,0,0,5],[0,1,0,0,-5],[1,0,0,0,5],[1,1,0,0,-5]];perimeter=orthogonalPerimeter;outlineConnect=0;targetShapes=umlLifeline;portConstraint=eastwest;newEdgeStyle={&quot;curved&quot;:0,&quot;rounded&quot;:0};" parent="PfA9UrWwTEVDZZUZMj6F-281" vertex="1">
          <mxGeometry x="1248.5" y="20" width="10" height="65" as="geometry" />
        </mxCell>
        <mxCell id="PfA9UrWwTEVDZZUZMj6F-287" style="edgeStyle=orthogonalEdgeStyle;rounded=0;orthogonalLoop=1;jettySize=auto;html=1;curved=0;" parent="PfA9UrWwTEVDZZUZMj6F-281" source="PfA9UrWwTEVDZZUZMj6F-289" target="PfA9UrWwTEVDZZUZMj6F-301" edge="1">
          <mxGeometry relative="1" as="geometry">
            <Array as="points">
              <mxPoint x="349" y="102" />
              <mxPoint x="349" y="102" />
            </Array>
          </mxGeometry>
        </mxCell>
        <mxCell id="PfA9UrWwTEVDZZUZMj6F-288" value="Dispositivos no existentes" style="edgeLabel;html=1;align=center;verticalAlign=middle;resizable=0;points=[];" parent="PfA9UrWwTEVDZZUZMj6F-287" vertex="1" connectable="0">
          <mxGeometry x="0.2627" y="2" relative="1" as="geometry">
            <mxPoint x="46" y="-14" as="offset" />
          </mxGeometry>
        </mxCell>
        <mxCell id="PfA9UrWwTEVDZZUZMj6F-289" value="" style="html=1;points=[[0,0,0,0,5],[0,1,0,0,-5],[1,0,0,0,5],[1,1,0,0,-5]];perimeter=orthogonalPerimeter;outlineConnect=0;targetShapes=umlLifeline;portConstraint=eastwest;newEdgeStyle={&quot;curved&quot;:0,&quot;rounded&quot;:0};" parent="PfA9UrWwTEVDZZUZMj6F-281" vertex="1">
          <mxGeometry x="751" y="30" width="10" height="75" as="geometry" />
        </mxCell>
        <mxCell id="PfA9UrWwTEVDZZUZMj6F-290" style="edgeStyle=orthogonalEdgeStyle;rounded=0;orthogonalLoop=1;jettySize=auto;html=1;curved=0;exitX=1;exitY=0;exitDx=0;exitDy=5;exitPerimeter=0;" parent="PfA9UrWwTEVDZZUZMj6F-281" source="PfA9UrWwTEVDZZUZMj6F-289" target="PfA9UrWwTEVDZZUZMj6F-286" edge="1">
          <mxGeometry relative="1" as="geometry">
            <Array as="points">
              <mxPoint x="761" y="30" />
            </Array>
          </mxGeometry>
        </mxCell>
        <mxCell id="PfA9UrWwTEVDZZUZMj6F-291" value="Pedir datos de dispositivos" style="edgeLabel;html=1;align=center;verticalAlign=middle;resizable=0;points=[];" parent="PfA9UrWwTEVDZZUZMj6F-290" vertex="1" connectable="0">
          <mxGeometry x="-0.006" y="2" relative="1" as="geometry">
            <mxPoint x="25" y="-8" as="offset" />
          </mxGeometry>
        </mxCell>
        <mxCell id="PfA9UrWwTEVDZZUZMj6F-292" value="" style="group" parent="PfA9UrWwTEVDZZUZMj6F-281" vertex="1" connectable="0">
          <mxGeometry x="1307" y="30" width="75" as="geometry" />
        </mxCell>
        <mxCell id="PfA9UrWwTEVDZZUZMj6F-293" value="Buscar datos en la base de datos" style="html=1;verticalAlign=bottom;startArrow=none;startFill=0;endArrow=oval;curved=0;rounded=0;endFill=1;targetPerimeterSpacing=2;endSize=14;" parent="PfA9UrWwTEVDZZUZMj6F-292" edge="1">
          <mxGeometry x="-0.059" y="5" width="80" relative="1" as="geometry">
            <mxPoint as="sourcePoint" />
            <mxPoint x="75" as="targetPoint" />
            <mxPoint as="offset" />
            <Array as="points">
              <mxPoint x="35" />
            </Array>
          </mxGeometry>
        </mxCell>
        <mxCell id="PfA9UrWwTEVDZZUZMj6F-294" value="" style="endArrow=open;endFill=1;endSize=12;html=1;rounded=0;" parent="PfA9UrWwTEVDZZUZMj6F-292" source="PfA9UrWwTEVDZZUZMj6F-286" edge="1">
          <mxGeometry width="160" relative="1" as="geometry">
            <mxPoint as="sourcePoint" />
            <mxPoint x="70" as="targetPoint" />
          </mxGeometry>
        </mxCell>
        <mxCell id="PfA9UrWwTEVDZZUZMj6F-295" style="edgeStyle=orthogonalEdgeStyle;rounded=0;orthogonalLoop=1;jettySize=auto;html=1;curved=0;dashed=1;dashPattern=12 12;" parent="PfA9UrWwTEVDZZUZMj6F-281" source="PfA9UrWwTEVDZZUZMj6F-286" target="PfA9UrWwTEVDZZUZMj6F-289" edge="1">
          <mxGeometry relative="1" as="geometry">
            <Array as="points">
              <mxPoint x="1008" y="75" />
              <mxPoint x="1008" y="75" />
            </Array>
          </mxGeometry>
        </mxCell>
        <mxCell id="PfA9UrWwTEVDZZUZMj6F-296" value="Sin datos que mostrar" style="edgeLabel;html=1;align=center;verticalAlign=middle;resizable=0;points=[];" parent="PfA9UrWwTEVDZZUZMj6F-295" vertex="1" connectable="0">
          <mxGeometry x="0.1905" y="1" relative="1" as="geometry">
            <mxPoint x="49" y="-11" as="offset" />
          </mxGeometry>
        </mxCell>
        <mxCell id="PfA9UrWwTEVDZZUZMj6F-297" value="" style="html=1;verticalAlign=bottom;startArrow=circle;startFill=1;endArrow=open;startSize=6;endSize=8;curved=0;rounded=0;dashed=1;dashPattern=12 12;" parent="PfA9UrWwTEVDZZUZMj6F-281" edge="1" target="PfA9UrWwTEVDZZUZMj6F-286">
          <mxGeometry x="-1" y="-10" width="80" relative="1" as="geometry">
            <mxPoint x="1387" y="70" as="sourcePoint" />
            <mxPoint x="1302" y="70" as="targetPoint" />
            <mxPoint as="offset" />
          </mxGeometry>
        </mxCell>
        <mxCell id="PfA9UrWwTEVDZZUZMj6F-298" value="No se encontraron datos en base de datos" style="edgeLabel;html=1;align=center;verticalAlign=middle;resizable=0;points=[];" parent="PfA9UrWwTEVDZZUZMj6F-297" vertex="1" connectable="0">
          <mxGeometry x="-0.5176" y="-1" relative="1" as="geometry">
            <mxPoint x="21" y="-16" as="offset" />
          </mxGeometry>
        </mxCell>
        <mxCell id="PfA9UrWwTEVDZZUZMj6F-299" style="edgeStyle=orthogonalEdgeStyle;rounded=0;orthogonalLoop=1;jettySize=auto;html=1;curved=0;" parent="PfA9UrWwTEVDZZUZMj6F-281" source="PfA9UrWwTEVDZZUZMj6F-301" target="PfA9UrWwTEVDZZUZMj6F-302" edge="1">
          <mxGeometry relative="1" as="geometry">
            <Array as="points">
              <mxPoint x="117" y="102" />
              <mxPoint x="117" y="102" />
            </Array>
          </mxGeometry>
        </mxCell>
        <mxCell id="PfA9UrWwTEVDZZUZMj6F-300" value="Notificar que no se tiene dispositivos registrados" style="edgeLabel;html=1;align=center;verticalAlign=middle;resizable=0;points=[];" parent="PfA9UrWwTEVDZZUZMj6F-299" vertex="1" connectable="0">
          <mxGeometry x="0.229" y="-1" relative="1" as="geometry">
            <mxPoint x="25" y="-18" as="offset" />
          </mxGeometry>
        </mxCell>
        <mxCell id="PfA9UrWwTEVDZZUZMj6F-301" value="" style="html=1;points=[[0,0,0,0,5],[0,1,0,0,-5],[1,0,0,0,5],[1,1,0,0,-5]];perimeter=orthogonalPerimeter;outlineConnect=0;targetShapes=umlLifeline;portConstraint=eastwest;newEdgeStyle={&quot;curved&quot;:0,&quot;rounded&quot;:0};" parent="PfA9UrWwTEVDZZUZMj6F-281" vertex="1">
          <mxGeometry x="316" y="70" width="10" height="40" as="geometry" />
        </mxCell>
        <mxCell id="PfA9UrWwTEVDZZUZMj6F-302" value="" style="html=1;points=[[0,0,0,0,5],[0,1,0,0,-5],[1,0,0,0,5],[1,1,0,0,-5]];perimeter=orthogonalPerimeter;outlineConnect=0;targetShapes=umlLifeline;portConstraint=eastwest;newEdgeStyle={&quot;curved&quot;:0,&quot;rounded&quot;:0};" parent="PfA9UrWwTEVDZZUZMj6F-281" vertex="1">
          <mxGeometry x="62" y="90" width="10" height="30" as="geometry" />
        </mxCell>
        <mxCell id="PfA9UrWwTEVDZZUZMj6F-303" style="edgeStyle=orthogonalEdgeStyle;rounded=0;orthogonalLoop=1;jettySize=auto;html=1;curved=0;" parent="PfA9UrWwTEVDZZUZMj6F-281" source="PfA9UrWwTEVDZZUZMj6F-305" target="PfA9UrWwTEVDZZUZMj6F-310" edge="1">
          <mxGeometry relative="1" as="geometry">
            <Array as="points">
              <mxPoint x="117" y="482" />
              <mxPoint x="117" y="482" />
            </Array>
          </mxGeometry>
        </mxCell>
        <mxCell id="PfA9UrWwTEVDZZUZMj6F-304" value="Seleccionar dispositivo por ID" style="edgeLabel;html=1;align=center;verticalAlign=middle;resizable=0;points=[];" parent="PfA9UrWwTEVDZZUZMj6F-303" vertex="1" connectable="0">
          <mxGeometry x="0.2032" y="4" relative="1" as="geometry">
            <mxPoint x="-20" y="-8" as="offset" />
          </mxGeometry>
        </mxCell>
        <mxCell id="PfA9UrWwTEVDZZUZMj6F-305" value="" style="html=1;points=[[0,0,0,0,5],[0,1,0,0,-5],[1,0,0,0,5],[1,1,0,0,-5]];perimeter=orthogonalPerimeter;outlineConnect=0;targetShapes=umlLifeline;portConstraint=eastwest;newEdgeStyle={&quot;curved&quot;:0,&quot;rounded&quot;:0};" parent="PfA9UrWwTEVDZZUZMj6F-281" vertex="1">
          <mxGeometry x="62" y="476" width="10" height="62" as="geometry" />
        </mxCell>
        <mxCell id="PfA9UrWwTEVDZZUZMj6F-306" style="edgeStyle=orthogonalEdgeStyle;rounded=0;orthogonalLoop=1;jettySize=auto;html=1;curved=0;" parent="PfA9UrWwTEVDZZUZMj6F-281" edge="1" target="PfA9UrWwTEVDZZUZMj6F-313" source="PfA9UrWwTEVDZZUZMj6F-310">
          <mxGeometry relative="1" as="geometry">
            <mxPoint x="285" y="475.0526315789475" as="sourcePoint" />
            <mxPoint x="398" y="475.0526315789475" as="targetPoint" />
            <Array as="points">
              <mxPoint x="480" y="475" />
              <mxPoint x="480" y="475" />
            </Array>
          </mxGeometry>
        </mxCell>
        <mxCell id="PfA9UrWwTEVDZZUZMj6F-307" value="Peticion de cambio de pagina" style="edgeLabel;html=1;align=center;verticalAlign=middle;resizable=0;points=[];" parent="PfA9UrWwTEVDZZUZMj6F-306" vertex="1" connectable="0">
          <mxGeometry x="0.1254" y="2" relative="1" as="geometry">
            <mxPoint x="-20" y="-14" as="offset" />
          </mxGeometry>
        </mxCell>
        <mxCell id="PfA9UrWwTEVDZZUZMj6F-308" style="edgeStyle=orthogonalEdgeStyle;rounded=0;orthogonalLoop=1;jettySize=auto;html=1;curved=0;dashed=1;dashPattern=12 12;" parent="PfA9UrWwTEVDZZUZMj6F-281" source="PfA9UrWwTEVDZZUZMj6F-310" target="PfA9UrWwTEVDZZUZMj6F-305" edge="1">
          <mxGeometry relative="1" as="geometry">
            <Array as="points">
              <mxPoint x="157" y="522" />
              <mxPoint x="157" y="522" />
            </Array>
          </mxGeometry>
        </mxCell>
        <mxCell id="PfA9UrWwTEVDZZUZMj6F-309" value="Mostrar los datos del dispositivo por ID" style="edgeLabel;html=1;align=center;verticalAlign=middle;resizable=0;points=[];" parent="PfA9UrWwTEVDZZUZMj6F-308" vertex="1" connectable="0">
          <mxGeometry x="0.25" y="-1" relative="1" as="geometry">
            <mxPoint x="35" y="-14" as="offset" />
          </mxGeometry>
        </mxCell>
        <mxCell id="PfA9UrWwTEVDZZUZMj6F-310" value="" style="html=1;points=[[0,0,0,0,5],[0,1,0,0,-5],[1,0,0,0,5],[1,1,0,0,-5]];perimeter=orthogonalPerimeter;outlineConnect=0;targetShapes=umlLifeline;portConstraint=eastwest;newEdgeStyle={&quot;curved&quot;:0,&quot;rounded&quot;:0};" parent="PfA9UrWwTEVDZZUZMj6F-281" vertex="1">
          <mxGeometry x="314" y="470" width="10" height="60" as="geometry" />
        </mxCell>
        <mxCell id="PfA9UrWwTEVDZZUZMj6F-311" style="edgeStyle=orthogonalEdgeStyle;rounded=0;orthogonalLoop=1;jettySize=auto;html=1;curved=0;dashed=1;dashPattern=12 12;" parent="PfA9UrWwTEVDZZUZMj6F-281" target="PfA9UrWwTEVDZZUZMj6F-310" edge="1" source="PfA9UrWwTEVDZZUZMj6F-313">
          <mxGeometry relative="1" as="geometry">
            <mxPoint x="398" y="508.0526315789475" as="sourcePoint" />
            <mxPoint x="280" y="516" as="targetPoint" />
            <Array as="points">
              <mxPoint x="342" y="512" />
              <mxPoint x="342" y="515" />
            </Array>
          </mxGeometry>
        </mxCell>
        <mxCell id="PfA9UrWwTEVDZZUZMj6F-312" value="Cambio de pagina" style="edgeLabel;html=1;align=center;verticalAlign=middle;resizable=0;points=[];" parent="PfA9UrWwTEVDZZUZMj6F-311" vertex="1" connectable="0">
          <mxGeometry x="0.3184" y="-2" relative="1" as="geometry">
            <mxPoint x="23" y="-13" as="offset" />
          </mxGeometry>
        </mxCell>
        <mxCell id="PfA9UrWwTEVDZZUZMj6F-313" value="" style="html=1;points=[[0,0,0,0,5],[0,1,0,0,-5],[1,0,0,0,5],[1,1,0,0,-5]];perimeter=orthogonalPerimeter;outlineConnect=0;targetShapes=umlLifeline;portConstraint=eastwest;newEdgeStyle={&quot;curved&quot;:0,&quot;rounded&quot;:0};" parent="PfA9UrWwTEVDZZUZMj6F-281" vertex="1">
          <mxGeometry x="540" y="470" width="10" height="58" as="geometry" />
        </mxCell>
        <mxCell id="PfA9UrWwTEVDZZUZMj6F-314" value="" style="html=1;verticalAlign=bottom;startArrow=circle;startFill=1;endArrow=open;startSize=6;endSize=8;curved=0;rounded=0;dashed=1;dashPattern=12 12;" parent="PfA9UrWwTEVDZZUZMj6F-281" edge="1" target="PfA9UrWwTEVDZZUZMj6F-247">
          <mxGeometry x="-1" y="-10" width="80" relative="1" as="geometry">
            <mxPoint x="1428.9399999999998" y="498.5999999999998" as="sourcePoint" />
            <mxPoint x="1307" y="498.59999999999985" as="targetPoint" />
            <mxPoint as="offset" />
          </mxGeometry>
        </mxCell>
        <mxCell id="PfA9UrWwTEVDZZUZMj6F-315" value="Enviar datos del dispositivo por ID de la base de datos" style="edgeLabel;html=1;align=center;verticalAlign=middle;resizable=0;points=[];" parent="PfA9UrWwTEVDZZUZMj6F-314" vertex="1" connectable="0">
          <mxGeometry x="-0.5176" y="-1" relative="1" as="geometry">
            <mxPoint x="9" y="-13" as="offset" />
          </mxGeometry>
        </mxCell>
        <mxCell id="PfA9UrWwTEVDZZUZMj6F-334" value="" style="group" parent="PfA9UrWwTEVDZZUZMj6F-281" vertex="1" connectable="0">
          <mxGeometry x="1328" y="470" width="92" as="geometry" />
        </mxCell>
        <mxCell id="PfA9UrWwTEVDZZUZMj6F-335" value="Buscar datos del disposivo por ID en la base de datos" style="html=1;verticalAlign=bottom;startArrow=none;startFill=0;endArrow=oval;curved=0;rounded=0;endFill=1;targetPerimeterSpacing=2;endSize=14;" parent="PfA9UrWwTEVDZZUZMj6F-334" edge="1">
          <mxGeometry x="0.5217" y="5" width="80" relative="1" as="geometry">
            <mxPoint as="sourcePoint" />
            <mxPoint x="92" as="targetPoint" />
            <mxPoint as="offset" />
            <Array as="points">
              <mxPoint x="42.93333333333334" />
            </Array>
          </mxGeometry>
        </mxCell>
        <mxCell id="PfA9UrWwTEVDZZUZMj6F-336" value="" style="endArrow=open;endFill=1;endSize=12;html=1;rounded=0;" parent="PfA9UrWwTEVDZZUZMj6F-334" edge="1" source="PfA9UrWwTEVDZZUZMj6F-247">
          <mxGeometry width="160" relative="1" as="geometry">
            <mxPoint as="sourcePoint" />
            <mxPoint x="85.86666666666667" as="targetPoint" />
          </mxGeometry>
        </mxCell>
        <mxCell id="PfA9UrWwTEVDZZUZMj6F-316" value="ID" style="shape=umlLifeline;perimeter=lifelinePerimeter;whiteSpace=wrap;html=1;container=1;collapsible=0;recursiveResize=0;outlineConnect=0;rounded=0;shadow=0;comic=0;labelBackgroundColor=none;strokeWidth=1;fontFamily=Verdana;fontSize=12;align=center;" parent="1" vertex="1">
          <mxGeometry x="934" y="83" width="100" height="944" as="geometry" />
        </mxCell>
        <mxCell id="PfA9UrWwTEVDZZUZMj6F-317" value="" style="html=1;points=[[0,0,0,0,5],[0,1,0,0,-5],[1,0,0,0,5],[1,1,0,0,-5]];perimeter=orthogonalPerimeter;outlineConnect=0;targetShapes=umlLifeline;portConstraint=eastwest;newEdgeStyle={&quot;curved&quot;:0,&quot;rounded&quot;:0};" parent="PfA9UrWwTEVDZZUZMj6F-316" vertex="1">
          <mxGeometry x="45" y="710" width="10" height="46" as="geometry" />
        </mxCell>
        <mxCell id="PfA9UrWwTEVDZZUZMj6F-318" value="" style="html=1;points=[[0,0,0,0,5],[0,1,0,0,-5],[1,0,0,0,5],[1,1,0,0,-5]];perimeter=orthogonalPerimeter;outlineConnect=0;targetShapes=umlLifeline;portConstraint=eastwest;newEdgeStyle={&quot;curved&quot;:0,&quot;rounded&quot;:0};" parent="1" vertex="1">
          <mxGeometry x="563.5" y="249" width="10" height="42" as="geometry" />
        </mxCell>
        <mxCell id="PfA9UrWwTEVDZZUZMj6F-319" value="" style="html=1;points=[[0,0,0,0,5],[0,1,0,0,-5],[1,0,0,0,5],[1,1,0,0,-5]];perimeter=orthogonalPerimeter;outlineConnect=0;targetShapes=umlLifeline;portConstraint=eastwest;newEdgeStyle={&quot;curved&quot;:0,&quot;rounded&quot;:0};" parent="1" vertex="1">
          <mxGeometry x="335.5" y="253" width="10" height="42" as="geometry" />
        </mxCell>
        <mxCell id="PfA9UrWwTEVDZZUZMj6F-320" value="" style="html=1;points=[[0,0,0,0,5],[0,1,0,0,-5],[1,0,0,0,5],[1,1,0,0,-5]];perimeter=orthogonalPerimeter;outlineConnect=0;targetShapes=umlLifeline;portConstraint=eastwest;newEdgeStyle={&quot;curved&quot;:0,&quot;rounded&quot;:0};" parent="1" vertex="1">
          <mxGeometry x="82" y="259" width="10" height="38" as="geometry" />
        </mxCell>
        <mxCell id="PfA9UrWwTEVDZZUZMj6F-321" value="" style="html=1;points=[[0,0,0,0,5],[0,1,0,0,-5],[1,0,0,0,5],[1,1,0,0,-5]];perimeter=orthogonalPerimeter;outlineConnect=0;targetShapes=umlLifeline;portConstraint=eastwest;newEdgeStyle={&quot;curved&quot;:0,&quot;rounded&quot;:0};" parent="1" vertex="1">
          <mxGeometry x="772.5" y="249" width="10" height="46" as="geometry" />
        </mxCell>
        <mxCell id="PfA9UrWwTEVDZZUZMj6F-322" style="edgeStyle=orthogonalEdgeStyle;rounded=0;orthogonalLoop=1;jettySize=auto;html=1;curved=0;" parent="1" source="PfA9UrWwTEVDZZUZMj6F-320" target="PfA9UrWwTEVDZZUZMj6F-319" edge="1">
          <mxGeometry relative="1" as="geometry">
            <Array as="points">
              <mxPoint x="87" y="257" />
            </Array>
          </mxGeometry>
        </mxCell>
        <mxCell id="PfA9UrWwTEVDZZUZMj6F-323" value="&lt;font style=&quot;font-size: 10px;&quot;&gt;Cambiar de pagina a administracion de dispositivos&lt;/font&gt;" style="edgeLabel;html=1;align=center;verticalAlign=middle;resizable=0;points=[];" parent="PfA9UrWwTEVDZZUZMj6F-322" vertex="1" connectable="0">
          <mxGeometry x="-0.316" y="2" relative="1" as="geometry">
            <mxPoint x="41" y="-15" as="offset" />
          </mxGeometry>
        </mxCell>
        <mxCell id="PfA9UrWwTEVDZZUZMj6F-324" style="edgeStyle=orthogonalEdgeStyle;rounded=0;orthogonalLoop=1;jettySize=auto;html=1;curved=0;" parent="1" source="PfA9UrWwTEVDZZUZMj6F-319" target="PfA9UrWwTEVDZZUZMj6F-318" edge="1">
          <mxGeometry relative="1" as="geometry">
            <Array as="points">
              <mxPoint x="394" y="257" />
              <mxPoint x="394" y="257" />
            </Array>
          </mxGeometry>
        </mxCell>
        <mxCell id="PfA9UrWwTEVDZZUZMj6F-325" value="&lt;font style=&quot;font-size: 10px;&quot;&gt;Enviar peticion de cambio de pagina&lt;/font&gt;" style="edgeLabel;html=1;align=center;verticalAlign=middle;resizable=0;points=[];" parent="PfA9UrWwTEVDZZUZMj6F-324" vertex="1" connectable="0">
          <mxGeometry x="0.1104" relative="1" as="geometry">
            <mxPoint x="-10" y="-17" as="offset" />
          </mxGeometry>
        </mxCell>
        <mxCell id="PfA9UrWwTEVDZZUZMj6F-326" style="edgeStyle=orthogonalEdgeStyle;rounded=0;orthogonalLoop=1;jettySize=auto;html=1;curved=0;dashed=1;dashPattern=12 12;" parent="1" source="PfA9UrWwTEVDZZUZMj6F-318" target="PfA9UrWwTEVDZZUZMj6F-319" edge="1">
          <mxGeometry relative="1" as="geometry">
            <Array as="points">
              <mxPoint x="364" y="287" />
              <mxPoint x="364" y="287" />
            </Array>
          </mxGeometry>
        </mxCell>
        <mxCell id="PfA9UrWwTEVDZZUZMj6F-327" value="&lt;font style=&quot;font-size: 10px;&quot;&gt;Reedirecciona a administracion de dispositivos&lt;/font&gt;" style="edgeLabel;html=1;align=center;verticalAlign=middle;resizable=0;points=[];" parent="PfA9UrWwTEVDZZUZMj6F-326" vertex="1" connectable="0">
          <mxGeometry x="0.2143" y="1" relative="1" as="geometry">
            <mxPoint x="20" y="-14" as="offset" />
          </mxGeometry>
        </mxCell>
        <mxCell id="PfA9UrWwTEVDZZUZMj6F-328" style="edgeStyle=orthogonalEdgeStyle;rounded=0;orthogonalLoop=1;jettySize=auto;html=1;curved=0;dashed=1;dashPattern=12 12;" parent="1" source="PfA9UrWwTEVDZZUZMj6F-319" target="PfA9UrWwTEVDZZUZMj6F-320" edge="1">
          <mxGeometry relative="1" as="geometry">
            <Array as="points">
              <mxPoint x="172" y="287" />
              <mxPoint x="172" y="287" />
            </Array>
            <mxPoint x="300.5" y="279" as="sourcePoint" />
            <mxPoint x="92" y="279" as="targetPoint" />
          </mxGeometry>
        </mxCell>
        <mxCell id="PfA9UrWwTEVDZZUZMj6F-329" value="&lt;font style=&quot;font-size: 10px;&quot;&gt;Muestra pagina de administracion de dispositivos&lt;/font&gt;" style="edgeLabel;html=1;align=center;verticalAlign=middle;resizable=0;points=[];" parent="PfA9UrWwTEVDZZUZMj6F-328" vertex="1" connectable="0">
          <mxGeometry x="0.4237" y="1" relative="1" as="geometry">
            <mxPoint x="47" y="-18" as="offset" />
          </mxGeometry>
        </mxCell>
        <mxCell id="PfA9UrWwTEVDZZUZMj6F-330" style="edgeStyle=orthogonalEdgeStyle;rounded=0;orthogonalLoop=1;jettySize=auto;html=1;curved=0;" parent="1" edge="1">
          <mxGeometry relative="1" as="geometry">
            <Array as="points">
              <mxPoint x="632.5" y="257" />
              <mxPoint x="632.5" y="257" />
            </Array>
            <mxPoint x="573.5" y="257.04761904761904" as="sourcePoint" />
            <mxPoint x="772.5" y="257.04761904761904" as="targetPoint" />
          </mxGeometry>
        </mxCell>
        <mxCell id="PfA9UrWwTEVDZZUZMj6F-331" value="Pide direccion a la pagina" style="edgeLabel;html=1;align=center;verticalAlign=middle;resizable=0;points=[];" parent="PfA9UrWwTEVDZZUZMj6F-330" vertex="1" connectable="0">
          <mxGeometry x="0.1236" relative="1" as="geometry">
            <mxPoint x="-8" y="-17" as="offset" />
          </mxGeometry>
        </mxCell>
        <mxCell id="PfA9UrWwTEVDZZUZMj6F-332" style="edgeStyle=orthogonalEdgeStyle;rounded=0;orthogonalLoop=1;jettySize=auto;html=1;curved=0;dashed=1;dashPattern=12 12;" parent="1" edge="1">
          <mxGeometry relative="1" as="geometry">
            <Array as="points">
              <mxPoint x="677" y="284" />
              <mxPoint x="677" y="284" />
            </Array>
            <mxPoint x="772.5" y="284" as="sourcePoint" />
            <mxPoint x="573.5" y="284" as="targetPoint" />
          </mxGeometry>
        </mxCell>
        <mxCell id="PfA9UrWwTEVDZZUZMj6F-333" value="Entrega direccion de la pagina" style="edgeLabel;html=1;align=center;verticalAlign=middle;resizable=0;points=[];" parent="PfA9UrWwTEVDZZUZMj6F-332" vertex="1" connectable="0">
          <mxGeometry x="-0.108" y="1" relative="1" as="geometry">
            <mxPoint y="-10" as="offset" />
          </mxGeometry>
        </mxCell>
        <mxCell id="PfA9UrWwTEVDZZUZMj6F-337" style="edgeStyle=orthogonalEdgeStyle;rounded=0;orthogonalLoop=1;jettySize=auto;html=1;curved=0;dashed=1;dashPattern=12 12;" parent="1" source="PfA9UrWwTEVDZZUZMj6F-247" target="PfA9UrWwTEVDZZUZMj6F-317" edge="1">
          <mxGeometry relative="1" as="geometry">
            <Array as="points">
              <mxPoint x="1088" y="827" />
              <mxPoint x="1088" y="827" />
            </Array>
          </mxGeometry>
        </mxCell>
        <mxCell id="PfA9UrWwTEVDZZUZMj6F-338" value="Enviar datos de dispositivo por ID" style="edgeLabel;html=1;align=center;verticalAlign=middle;resizable=0;points=[];" parent="PfA9UrWwTEVDZZUZMj6F-337" vertex="1" connectable="0">
          <mxGeometry x="-0.3145" y="-2" relative="1" as="geometry">
            <mxPoint x="-27" y="-9" as="offset" />
          </mxGeometry>
        </mxCell>
        <mxCell id="PfA9UrWwTEVDZZUZMj6F-339" style="edgeStyle=orthogonalEdgeStyle;rounded=0;orthogonalLoop=1;jettySize=auto;html=1;curved=0;" parent="1" edge="1" target="PfA9UrWwTEVDZZUZMj6F-317" source="PfA9UrWwTEVDZZUZMj6F-313">
          <mxGeometry relative="1" as="geometry">
            <mxPoint x="503" y="802.0526315789475" as="sourcePoint" />
            <mxPoint x="802" y="802.0526315789475" as="targetPoint" />
            <Array as="points">
              <mxPoint x="865" y="800" />
              <mxPoint x="865" y="800" />
            </Array>
          </mxGeometry>
        </mxCell>
        <mxCell id="PfA9UrWwTEVDZZUZMj6F-340" value="Peticion de direccion de dispositivo por ID" style="edgeLabel;html=1;align=center;verticalAlign=middle;resizable=0;points=[];" parent="PfA9UrWwTEVDZZUZMj6F-339" vertex="1" connectable="0">
          <mxGeometry x="0.1984" y="3" relative="1" as="geometry">
            <mxPoint x="-8" y="-6" as="offset" />
          </mxGeometry>
        </mxCell>
        <mxCell id="PfA9UrWwTEVDZZUZMj6F-341" style="edgeStyle=orthogonalEdgeStyle;rounded=0;orthogonalLoop=1;jettySize=auto;html=1;curved=0;dashed=1;dashPattern=12 12;" parent="1" source="PfA9UrWwTEVDZZUZMj6F-317" target="PfA9UrWwTEVDZZUZMj6F-313" edge="1">
          <mxGeometry relative="1" as="geometry">
            <Array as="points">
              <mxPoint x="653" y="827" />
              <mxPoint x="653" y="837" />
            </Array>
          </mxGeometry>
        </mxCell>
        <mxCell id="PfA9UrWwTEVDZZUZMj6F-342" value="Direccion de dispositivo por ID" style="edgeLabel;html=1;align=center;verticalAlign=middle;resizable=0;points=[];" parent="PfA9UrWwTEVDZZUZMj6F-341" vertex="1" connectable="0">
          <mxGeometry x="-0.3606" y="-1" relative="1" as="geometry">
            <mxPoint x="-40" y="-7" as="offset" />
          </mxGeometry>
        </mxCell>
        <mxCell id="PfA9UrWwTEVDZZUZMj6F-343" style="edgeStyle=orthogonalEdgeStyle;rounded=0;orthogonalLoop=1;jettySize=auto;html=1;curved=0;" parent="1" edge="1" target="PfA9UrWwTEVDZZUZMj6F-247">
          <mxGeometry relative="1" as="geometry">
            <mxPoint x="976" y="799.0526315789475" as="sourcePoint" />
            <mxPoint x="1126.06" y="799.0526315789475" as="targetPoint" />
            <Array as="points">
              <mxPoint x="1209" y="800" />
              <mxPoint x="1209" y="800" />
            </Array>
          </mxGeometry>
        </mxCell>
        <mxCell id="PfA9UrWwTEVDZZUZMj6F-344" value="Pedir datos de dispositivo por ID" style="edgeLabel;html=1;align=center;verticalAlign=middle;resizable=0;points=[];" parent="PfA9UrWwTEVDZZUZMj6F-343" vertex="1" connectable="0">
          <mxGeometry x="-0.4019" y="1" relative="1" as="geometry">
            <mxPoint x="67" y="-11" as="offset" />
          </mxGeometry>
        </mxCell>
      </root>
    </mxGraphModel>
  </diagram>
</mxfile>
